Patient4_TMGait_0pt4_03_right_12_EMG.mot
version=1
nRows=36
nColumns=33
inDegrees=no
endheader
time	1LAddLong	2LGlutMax	3LGlutMed	4LIliopsoas	5LSemiMemb	6LBicFemLong	7LRecFem	8LVastMed	9LVastLat	10LGasMed	11LTibAnt	12lTibPost	13LPeroneusLong	14LSol	15LExtDigLong	16LFlexDigLong	17RAddLong	18RGlutMax	19RGlutMed	20RIliopsoas	21RSemiMemb	22RBicFemLong	23RRecFem	24RVastMed	25RVastLat	26RGasMed	27RTibAnt	28RTibPost	29RPeroneusLong	30RSol	31RExtDigLong	32RFlexDigLong
16.178	-0.013885	-0.055695	0.028381	0.006714	0.018463	0.034332	0.098419	0.007782	0.01297	-0.013123	0.24963	0.001984	-0.11612	0.074615	0.22369	-0.77026	0.010071	-0.013885	-0.23361	0.022125	0.071106	0.11963	0.020294	-0.049744	0.000916	-0.000153	0.050354	-0.007324	-0.052948	-0.014954	-0.007172	0.009155
16.179	-0.012054	-0.042877	0.112	0.005798	-0.037689	0.057983	0.10727	0.007782	0.000916	-0.03418	0.1506	0.001068	-0.047455	0.14877	-0.34058	-0.26428	0.001373	0.032043	-0.14694	-0.003052	0.029755	0.091248	-0.009766	-0.029755	0.010376	0.002136	0.03067	-0.002747	-0.049591	-0.016174	0.003204	0.003815
16.18	-0.002899	-0.030365	0.042725	0.006561	-0.10101	0.043335	0.019379	0.006714	0.056915	-0.04425	-0.21042	0.004272	0.05661	0.27527	-0.38513	0.93597	-0.009155	-0.019531	-0.078125	0.010986	-0.032196	0.15793	-0.007629	-0.087128	0.005951	0.006714	0.006256	-0.003967	-0.035553	-0.01709	-0.00061	0.009308
16.181	0.004425	-0.045013	0.063171	0.001984	-0.10193	-0.019531	0.072937	-0.006256	0.050049	-0.006409	-0.1178	-0.006866	0.035553	0.56824	-0.48386	0.50384	-0.00824	-0.054321	-0.11673	-0.035858	-0.043945	0.1767	0.00351	-0.053864	-0.003357	0.007935	0.013733	-0.004883	-0.041046	-0.029907	-0.001831	0.012665
16.182	0.00824	-0.034637	0.035553	0.003815	-0.008392	-0.046082	0.10864	-0.003815	-0.012207	0.010681	-0.000916	0.007782	-0.027924	0.76431	-0.21103	-0.74646	0.010681	0.001526	-0.074463	-0.08667	-0.1619	0.1889	0.012054	-0.051422	-0.00473	-0.000458	0.050659	-0.005188	-0.085297	-0.045471	0.000763	0.001831
16.183	0.0177	-0.040588	-0.029755	0.008545	0.083008	-0.081787	0.10498	-0.002594	-0.041809	-0.002136	-0.030365	-0.006256	-0.046844	0.61157	0.10117	0.63553	0.002441	-0.047302	-0.16922	-0.007019	-0.14587	0.19547	-0.014496	0.01358	-0.005035	-0.003204	0.063171	-0.005035	-0.082703	-0.05661	0.001831	0.007019
16.184	0.013428	-0.050964	-0.079041	0.005493	0.11108	-0.10193	0.1207	-0.002747	-0.045776	0.019226	-0.085297	-0.003357	-0.055695	0.47669	-0.094604	-0.32654	-0.013123	-0.051422	-0.1532	0.112	0.15427	0.22812	-0.064087	0.029755	0.018768	-0.003357	0.032654	-0.007324	-0.02121	-0.029602	0.002899	0.005646
16.185	0.002136	-0.040283	-0.019226	0.00824	0.091095	-0.068665	0.13428	0.007782	-0.032806	-0.005493	-0.027161	0.008087	-0.00061	0.46738	-0.11627	-0.18295	0.015411	-0.055695	-0.16861	0.112	0.032806	0.24277	-0.01297	-0.029297	0.007019	-0.005951	0.013428	-0.00473	0.012665	-0.034637	-0.00061	0.005798
16.186	0.011597	-0.066223	0.07309	0.002747	0.079956	-0.040588	0.15228	0.005951	-0.018158	0.021667	0.048218	0.006561	-0.002747	0.33386	-0.17273	0.27664	0.000305	-0.03891	-0.075989	0.030823	-0.003052	0.30106	-0.030823	0.023346	0.005951	0.001221	0.019531	-0.009918	0.018463	-0.023041	0.002289	0.009003
16.187	0.010529	-0.045624	0.042877	0.02121	0.067749	0.008545	0.064545	0.004425	-0.024261	-0.02655	0.049744	0.004883	-0.006256	-0.16998	0.007629	0.39032	-0.018768	-0.021515	-0.12894	0.005035	0.1178	0.27329	-0.03891	-0.02594	-0.005188	-0.00351	0.0177	0.008087	-0.001984	-0.033722	0.00473	0.005798
16.188	0.01297	-0.044403	0.049591	0.00885	0.051727	0.021515	-0.037384	0.01358	-0.005951	-0.029907	-0.042114	-0.003052	0.053406	-0.49835	0.10941	-0.33737	-0.02121	-0.002747	-0.1918	-0.026855	0.039825	0.25726	0.018768	-0.024719	-0.018005	-0.007477	0.032501	-0.004425	-0.042419	-0.036774	0	0.009003
16.189	0.011292	-0.038757	0.063324	-0.002441	0.041199	0.016327	-0.002136	0.022278	0.082855	-0.025482	-0.007477	0.006866	0.04776	-0.73914	0.14481	0.681	-0.0383	-0.007782	-0.32181	0.00473	0.064392	0.24109	-0.032043	-0.036774	0.010681	-0.008392	0.016937	-0.005951	-0.024261	-0.034027	-0.002899	0.018616
16.19	0.009613	-0.014191	0.036011	0.011292	0.026245	0.004272	0.070343	0.001678	0.081635	0.1387	-0.002594	0.024109	0.00824	-0.84015	0.18829	0.017548	-0.046692	-0.002594	-0.56473	0.006409	0.054779	0.2655	-0.002594	-0.054626	0.002441	-0.007172	0.004425	-0.004425	0.001984	-0.03952	-0.001831	0.012665
16.191	0.015106	-0.045319	-0.023499	0.014191	0.022125	0.000305	0.067139	0.010376	0.045624	0.2095	0.014954	-0.005341	0.008087	-0.63629	0.18768	0.36163	-0.032959	0.02121	-0.35889	-0.001068	0.00351	0.3122	-0.048065	-0.029144	0.018311	-0.008545	0.019836	-0.003357	-0.045929	-0.043488	0.007324	0.010223
16.192	-0.002441	-0.011749	-0.059967	0.009766	0.025024	0.001068	0.058899	-0.004883	-0.03952	0.12146	-0.003357	-0.002747	0.014648	-0.41794	0.18326	-0.86548	-0.000763	-0.006256	-0.092316	-0.14221	-0.065918	0.31647	-0.053558	-0.034485	0.02121	-0.008392	0.023499	-0.007629	-0.050812	-0.049896	-0.001068	0.026398
16.193	-0.000763	-0.044403	-0.039673	0.016327	0.027618	-0.014954	0.059052	0.010681	-0.05722	-0.003052	0.003052	0.000916	0.047913	-0.45029	0.16708	-0.13428	0.033264	-0.003052	0.23239	-0.28702	-0.045013	0.34409	-0.048523	-0.066986	0.003662	-0.010376	0.017853	-0.007324	-0.027161	-0.024261	-0.001221	0.00824
16.194	0.001831	-0.057678	-0.077515	0.014801	0.024872	-0.015564	0.045471	0.003815	0.004272	-0.01358	-0.005646	0.007477	0.040283	-0.41992	0.17334	0.025177	0.039825	-0.033264	1.0303	-0.25314	-0.011444	0.39749	-0.021515	-0.036163	0.01358	-0.000153	0.0177	-0.003967	-0.029144	-0.028687	0.00351	0.000305
16.195	-0.00061	-0.050507	-0.012054	0.001526	0.027618	-0.008087	0.034027	-0.009003	0.046234	0.007477	-0.070343	0.006866	0.002136	-0.24811	0.39383	-0.038605	0.075989	-0.047607	0.80322	-0.10376	-0.059052	0.39444	-0.004578	-0.045319	0.01297	-0.004883	0.018311	-0.011292	-0.020905	-0.013885	-0.001831	-0.000458
16.196	-0.001678	-0.019531	0.12589	-0.018768	0.02243	-0.026245	-0.008545	-0.003052	0.003052	0.01236	-0.069733	0.005188	-0.029602	-0.10452	0.79605	-0.04364	0.061798	-0.020294	0.12528	0.12589	-0.14221	0.43289	-0.005798	-0.085449	0.014954	-0.008087	0.008087	-0.013123	-0.007477	-0.016632	-0.001526	-0.006409
16.197	-0.002594	-0.004883	0.21118	-0.00824	0.017548	-0.029602	0.003662	0.015717	0.006866	0.002441	0.096436	0.001984	-0.036011	0.030365	0.16098	-0.16113	0.020447	-0.008087	-0.41382	0.29068	-0.028839	0.4599	0.000763	-0.00473	0.005341	-0.005798	-0.00412	-0.011444	-0.011749	-0.014191	0.000458	-0.003967
16.198	-0.004578	-0.028534	0.19806	0.012054	0.019073	-0.014343	0.030823	0.010376	0.018616	-0.019226	0.14038	0.001678	0.00473	0.1387	0.52917	-0.11429	-0.025024	-0.043335	-0.57785	0.28625	0.06958	0.47104	0.00412	0.031281	0.016022	0.001678	0.010223	-0.006866	-0.063477	-0.020599	0.001678	-0.007172
16.199	-0.012512	-0.008545	0.098419	-0.000916	0.01297	-0.015564	0.10117	-0.010681	0.021667	0.007935	0.2565	-0.000305	-0.009918	0.1294	-0.006256	0.086212	-0.059204	-0.028687	-0.31555	0.10834	0.017395	0.49149	-0.001373	0.000763	0.021515	-0.000305	0.005493	-0.011597	-0.097809	-0.017395	-0.002747	-0.007629
16.2	-0.006561	-0.045471	-0.032501	0.013733	0.018616	-0.024872	0.12634	-0.013275	-0.020752	0.018463	0.43564	0.007629	-0.11887	0.079956	-0.57739	-0.067444	-0.067291	-0.028992	-0.24674	-0.008392	0.003815	0.51376	0.006104	-0.041199	0.011292	0.000153	-0.008392	-0.01709	0.1152	-0.022736	0.000458	-0.001831
16.201	-0.001831	-0.059509	-0.039063	0.012817	0.013275	-0.023499	0.12405	-0.005646	-0.020142	-0.044861	0.026703	-0.000916	0.002899	0.061951	-0.47562	-0.13779	-0.061035	0.004578	-0.059357	-0.18204	-0.01358	0.54245	0.045776	-0.001984	0.0177	-0.001221	0.008698	-0.009155	0.017395	-0.014343	0.001526	-0.016479
16.202	0.001373	-0.056305	0.082703	0.005798	0.025635	-0.010834	0.13748	-0.005646	-0.016174	-0.060425	-0.03952	0.008392	0.023041	0.057831	-0.31982	-0.064392	-0.052795	0.018768	-0.13275	-0.16388	0.014954	0.51895	0.091858	0.02182	-0.001984	0.002594	0.038147	-0.009155	-0.1622	-0.019836	-0.001221	-0.007324
16.203	0.000458	-0.068817	0.069122	0.014954	0.031281	0.001678	0.14389	-0.001221	-0.018921	-0.05188	-0.21652	0.001526	0.058289	0.06012	-0.3894	-0.023346	-0.03479	-0.002136	0.078735	-0.020599	0.026245	0.50552	0.033264	-0.006256	0.018463	0.006561	-0.004578	-0.011902	-0.042725	-0.001831	-0.000458	-0.001831
16.204	0.00824	-0.010529	0.067444	0.007019	0.033112	0.002747	0.091858	0.00061	-0.022278	-0.073242	-0.18494	-0.003662	0.097961	-0.035858	-0.19943	0.14053	-0.003815	0.033112	0.47409	0.025787	0.023346	0.52033	0.003204	0.014648	0.028839	0.00824	-0.024414	-0.012054	-0.00412	0.001984	0.001068	0.006409
16.205	0.00473	-0.040741	0.059509	-0.002136	0.029755	-0.00351	0.1088	-0.003662	-0.011597	-0.010223	0	0.012817	-0.027618	-0.048828	-0.086823	-0.33676	0.008087	-0.010834	0.10681	0.058289	-0.009003	0.46539	0.006104	-0.019379	0.023499	0.007782	-0.010071	-0.009155	-0.011902	0.000916	0.001831	-0.003662
16.206	0.006256	-0.04303	0.056763	-0.001984	0.007629	0.014496	0.11932	-0.001373	-0.016174	-0.006409	-0.009918	0.006409	-0.082855	-0.099945	-0.22095	0.15243	0.019073	-0.032959	0.005798	0.24109	0.002441	0.45959	0.015106	-0.005035	0.020599	-0.001526	0.000305	-0.012817	-0.041962	-0.027161	0.002441	0.010529
16.207	0.007477	-0.05722	-0.016632	-0.002136	-0.000763	0.009155	0.14099	-0.003204	-0.014038	-0.085907	-0.15945	0.003967	-0.044403	-0.10315	-0.39825	0.17242	0.036163	-0.040283	0.093079	0.29144	0.021973	0.44266	0.001831	-0.00412	0.016022	0.00412	0.00351	-0.012512	-0.039673	-0.022736	0.000153	0.015564
16.208	0.011597	-0.058441	0.002747	0.014038	-0.013733	0.007782	0.15198	0.002899	-0.016937	-0.097351	-0.19241	-0.002441	0.007629	0.074768	-0.18936	0.040588	0.047302	-0.046387	0.092163	0.28336	0.033875	0.4245	0.04837	0.009918	0.01236	0.006104	-0.002441	-0.009613	-0.02655	-0.000458	-0.001221	0.015106
16.209	0.007782	-0.067596	0.0354	0.021973	0.007629	-0.002899	0.18219	0.004272	-0.012817	-0.086823	-0.092926	0.003204	0.028687	0.054321	-0.00946	0.001526	0.045929	-0.024872	-0.21316	0.15671	0.00351	0.37094	0.024414	0.019379	0.017853	0.005035	0.000763	-0.016327	0.006714	-0.015259	0.000763	0.021057
16.21	0.004883	-0.054016	0.10513	0.004578	0.025787	-0.010223	0.2034	0.004425	-0.031586	-0.012817	0.074158	0.003357	0.05722	0.06897	0.06012	0.001678	0.027008	0.028229	-0.63736	0.083923	-0.008698	0.35065	-0.020599	-0.004883	0.010376	0.002747	0.028076	-0.006256	0.031891	-0.016174	-0.004578	0.026093
16.211	0.005035	-0.067902	0.1001	0.005188	0.051575	-0.015564	0.15533	0.002594	-0.060272	-0.027466	0.090485	0.002594	0.017242	0.22079	0.11108	-0.47119	0.010376	0.0354	-0.58655	0.083313	-0.072479	0.35309	-0.03006	0.006104	0.007782	0.003204	0.016327	-0.009308	-0.066833	-0.012512	-0.004883	0.02243
16.212	0.005798	-0.076447	0.12344	0.009155	0.036774	-0.009003	0.13321	0.006409	-0.074158	0.025177	0.11017	0.00351	0.015106	0.31754	0.11581	0.021973	-0.012665	0.003662	-0.41138	0.038605	-0.045624	0.3537	-0.057983	0.026245	0.018311	0.004578	0.011444	-0.013123	0.017242	-0.040894	0	0.024567
16.213	0.008087	-0.074768	0.049133	0.010681	0.011444	-0.013123	0.13229	0.002899	-0.062866	0.033417	0.21439	0.016632	-0.035248	0.33783	0.12558	0.13733	-0.005493	0.024261	0.59982	-0.048218	-0.15595	0.31021	-0.064392	0.029297	0.023651	0.006866	0.017853	-0.009003	0.29266	-0.050049	-0.006561	0.023041
